<?xml version="1.0" standalone="no"?><!DOCTYPE svg PUBLIC "-//W3C//DTD SVG 1.1//EN" "http://www.w3.org/Graphics/SVG/1.1/DTD/svg11.dtd"><svg t="1747574335169" class="icon" viewBox="0 0 1024 1024" version="1.1" xmlns="http://www.w3.org/2000/svg" p-id="1168" width="16" height="16" xmlns:xlink="http://www.w3.org/1999/xlink"><path d="M581.6576 123.3536l93.9648-93.4528c39.9616-39.872 104.6784-39.872 144.64 0l173.824 174.8608c39.872 39.9744 39.872 104.6784 0 144.6528l-92.416 93.184L581.6576 123.3536z m-68.352 708.6336l309.2608-310.7968-14.848 14.848 48.896-49.664-318.9888-317.7088-25.6 23.296-317.7088 320.0128-3.584-3.584 3.328 3.328-123.4048 123.1488a118.51136 118.51136 0 0 0-29.952 76.8L0 919.04c2.9184 54.5024 44.8256 98.9056 99.072 104.96l213.2608-40.704c28.9664-0.1152 56.9088-10.752 78.592-29.952l121.1008-121.856 1.28 0.4992z m479.0016-161.792l-128-128.0128-317.9776 321.5488 49.664 51.2 123.4048-123.4048a32.0128 32.0128 0 0 1 54.9632 13.4656c2.8928 11.5072-0.8192 23.6672-9.6384 31.5904l-124.672 122.88 32.256 32.768c42.5216 42.176 111.0912 42.176 153.6 0l166.1568-168.192c42.2528-42.5216 42.368-111.1808 0.2432-153.8432zM354.5728 31.6928c-42.5216-42.1632-111.0912-42.1632-153.6 0L31.744 201.4336c-42.0352 42.5728-42.0352 111.0272 0 153.6l29.696 28.928 2.56-1.792 122.368-126.208c12.6208-12.2624 32.6912-12.2624 45.312 0 6.016 6.0032 9.3952 14.1568 9.3952 22.656 0 8.4992-3.3792 16.6528-9.3952 22.656l-123.904 124.928-1.28 1.536 57.344 55.552-3.328-3.328 319.5008-320.5248-125.44-127.744z m0 0" p-id="1169" fill="#d81e06"></path></svg>