<?xml version="1.0" standalone="no"?><!DOCTYPE svg PUBLIC "-//W3C//DTD SVG 1.1//EN" "http://www.w3.org/Graphics/SVG/1.1/DTD/svg11.dtd"><svg t="1748504820651" class="icon" viewBox="0 0 1280 1024" version="1.1" xmlns="http://www.w3.org/2000/svg" p-id="5054" width="20" height="16" xmlns:xlink="http://www.w3.org/1999/xlink"><path d="M854.812205 640.016079A159.9933 159.9933 0 0 1 895.962482 747.147593V864.0067a159.9933 159.9933 0 0 1-159.993301 159.9933h-575.975881A159.9933 159.9933 0 0 1 0 864.0067v-116.859107A159.9933 159.9933 0 0 1 41.150277 640.016079H31.99866a31.99866 31.99866 0 1 1 0-63.99732h106.363546l130.682528-72.956945a255.98928 255.98928 0 1 1 434.413809-166.841013l34.366561-35.198526a191.99196 191.99196 0 1 1 316.274756-0.127995l0.319986 0.255989 116.155136 119.291005A159.9933 159.9933 0 0 1 1215.949082 532.0526V576.018759h31.99866a31.99866 31.99866 0 1 1 0 63.99732h-393.135537z m-97.147932-63.99732H1151.951762v-43.966159a95.99598 95.99598 0 0 0-27.198861-67.005194l-115.195176-118.20305A191.159995 191.159995 0 0 1 895.962482 384.026799a191.159995 191.159995 0 0 1-113.467249-37.118446l-115.259174 118.139053c-13.439437 13.823421-15.231362 15.743341-18.815212 20.223153a35.070531 35.070531 0 0 0-8.447646 25.08695L757.72827 576.018759z m-38.142403 52.029821l-148.985761-83.196516A254.837329 254.837329 0 0 1 447.981241 576.018759a254.837329 254.837329 0 0 1-122.490871-31.166695l-212.279111 118.45904A95.99598 95.99598 0 0 0 63.99732 747.147593V864.0067A95.99598 95.99598 0 0 0 159.9933 960.00268h575.975881a95.99598 95.99598 0 0 0 95.99598-95.99598v-116.859107a95.99598 95.99598 0 0 0-49.213939-83.836489l-42.174234-23.551014a31.99866 31.99866 0 0 1-21.055118-11.71151zM447.981241 512.021439a191.99196 191.99196 0 1 0 0-383.983921 191.99196 191.99196 0 0 0 0 383.983921z m447.981241-191.99196a127.99464 127.99464 0 1 0 0-255.989281 127.99464 127.99464 0 0 0 0 255.989281z" fill="#000000" p-id="5055"></path></svg>