<?xml version="1.0" standalone="no"?><!DOCTYPE svg PUBLIC "-//W3C//DTD SVG 1.1//EN" "http://www.w3.org/Graphics/SVG/1.1/DTD/svg11.dtd"><svg t="1748504874359" class="icon" viewBox="0 0 1024 1024" version="1.1" xmlns="http://www.w3.org/2000/svg" p-id="5316" xmlns:xlink="http://www.w3.org/1999/xlink" width="16" height="16"><path d="M327.58692 352.47782c0 38.541805-31.051203 69.588915-69.593008 69.588915s-69.588915-31.04711-69.588915-69.588915 31.04711-69.588915 69.588915-69.588915c38.006616-0.535189 69.593008 31.04711 69.593008 69.588915z m368.82616 0c0 38.541805 31.046087 69.588915 69.587891 69.588915s69.593008-31.04711 69.593008-69.588915-31.051203-69.588915-69.593008-69.588915c-38.005592-0.535189-69.587891 31.04711-69.587891 69.588915zM307.779805 671.521157V506.645039a53.918004 53.918004 0 0 0-54.067406-54.063313h-1.606591a53.91391 53.91391 0 0 0-54.063313 54.063313v175.049828c0 33.184797 26.761504 59.951417 59.951417 59.951417h89.931219c11.244089 0 19.806091 9.101285 19.806091 19.806091v139.717112c0 16.59291 13.382798 29.975708 29.979802 29.975709h9.633404c16.597003 0 29.979802-13.382798 29.979802-29.975709V731.476667c0-33.18889-26.765597-59.95551-59.95551-59.95551h-69.588915z m464.10927-219.474621h-1.067308a53.915957 53.915957 0 0 0-54.067406 54.067407v164.872025h-69.588915c-33.18889 0-59.954487 26.765597-59.954487 59.95551v164.876118c0 19.270902 15.521508 34.792411 34.792411 34.79241h0.535189c19.270902 0 34.796504-15.521508 34.796504-34.79241V760.917186c0-11.241019 9.102309-19.807115 19.806091-19.807115h89.931219c33.189913 0 59.95551-26.761504 59.95551-59.951417V506.645039c-1.071402-30.510898-25.159006-54.598502-55.138808-54.598503zM676.605965 601.932242v-29.979802c0-5.351891-4.281513-10.168594-10.168594-10.168593h-308.874742c-5.352915 0-10.169617 4.281513-10.169617 10.168593v29.979802c0 5.352915 4.281513 10.169617 10.169617 10.169617h309.405838c5.355985-0.536212 9.637498-4.816702 9.637498-10.169617zM484.96425 92.853781c-72.799026 0-131.683135 46.572712-131.683135 104.385419 0 34.260292 20.874423 64.772212 53.528124 83.506902-3.210112 17.129122-13.382798 37.470403-27.297716 51.924603 34.256198-2.673899 64.772212-12.311397 84.578304-32.653701 6.959505 1.071402 13.919011 1.607614 21.409612 1.607615 72.803119 0 131.687228-46.572712 131.687228-104.385419-0.536212-57.812707-59.420321-104.385419-132.222417-104.385419z m-61.559031 124.727723c-11.239995 0-20.341281-9.102309-20.34128-20.342304 0-11.241019 9.101285-20.342304 20.34128-20.342304 11.241019 0 20.342304 9.101285 20.342304 20.342304 0 11.239995-9.101285 20.342304-20.342304 20.342304z m61.559031 0c-11.241019 0-20.338211-9.102309-20.33821-20.342304 0-11.241019 9.097192-20.342304 20.33821-20.342304 11.244089 0 20.342304 9.101285 20.342304 20.342304 0.535189 11.239995-9.098215 20.342304-20.342304 20.342304z m62.09729 0c-11.239995 0-20.342304-9.102309-20.342304-20.342304 0-11.241019 9.102309-20.342304 20.342304-20.342304 11.241019 0 20.342304 9.101285 20.342304 20.342304 0 11.239995-9.101285 20.342304-20.342304 20.342304z m0 0" p-id="5317"></path></svg>