<?xml version="1.0" standalone="no"?><!DOCTYPE svg PUBLIC "-//W3C//DTD SVG 1.1//EN" "http://www.w3.org/Graphics/SVG/1.1/DTD/svg11.dtd"><svg t="1748935048529" class="icon" viewBox="0 0 1024 1024" version="1.1" xmlns="http://www.w3.org/2000/svg" p-id="14543" width="32" height="32" xmlns:xlink="http://www.w3.org/1999/xlink"><path d="M682.666667 476.672V256c0-94.592-76.16-171.562667-169.770667-171.562667L494.336 85.333333l-1.024 1.024a170.538667 170.538667 0 0 0-124.117333 76.842667l63.104 63.104A85.205333 85.205333 0 0 1 512 170.666667l9.386667-0.426667C563.968 174.592 597.333333 211.413333 597.333333 256v135.338667l85.333334 85.333333z m80.981333 81.024l69.290667 69.290667A338.261333 338.261333 0 0 0 853.333333 512h-85.333333c0 15.616-1.621333 30.848-4.352 45.696zM341.333333 512c0 94.122667 76.544 170.666667 170.666667 170.666667 31.573333 0 60.672-9.258667 85.973333-24.362667l61.653334 61.653333A253.696 253.696 0 0 1 512 768c-141.184 0-256-114.816-256-256H170.666667c0 173.738667 130.56 317.269333 298.666666 338.389333V938.666667h85.333334v-88.32a339.370667 339.370667 0 0 0 165.76-69.589334l145.408 145.408 60.330666-60.330666-768-768-60.330666 60.330666L341.333333 401.664V512z m85.333334-25.002667l107.178666 107.178667A80.213333 80.213333 0 0 1 512 597.333333c-47.061333 0-85.333333-38.272-85.333333-85.333333v-25.002667z" fill="" p-id="14544"></path></svg>