<?xml version="1.0" standalone="no"?><!DOCTYPE svg PUBLIC "-//W3C//DTD SVG 1.1//EN" "http://www.w3.org/Graphics/SVG/1.1/DTD/svg11.dtd"><svg t="1748935083555" class="icon" viewBox="0 0 1024 1024" version="1.1" xmlns="http://www.w3.org/2000/svg" p-id="14771" xmlns:xlink="http://www.w3.org/1999/xlink" width="32" height="32"><path d="M810.654223 383.984001q17.663264 0 30.164076 12.500812t12.500812 30.164076l0 85.329778q0 63.997333-23.167035 123.173534t-63.016041 103.67568-95.014708 74.322237-117.499104 37.502437l0 88.017666 127.994667 0q17.663264 0 30.164076 12.500812t12.500812 30.164076-12.500812 30.164076-30.164076 12.500812l-341.319112 0q-17.663264 0-30.164076-12.500812t-12.500812-30.164076 12.500812-30.164076 30.164076-12.500812l127.994667 0 0-88.017666q-62.333403-7.67968-117.499104-37.502437t-95.014708-74.322237-63.016041-103.67568-23.167035-123.173534l0-85.329778q0-17.663264 12.500812-30.164076t30.164076-12.500812 30.164076 12.500812 12.500812 30.164076l0 85.329778q0 69.671764 34.345236 128.506646t93.180117 93.180117 128.506646 34.345236 128.506646-34.345236 93.180117-93.180117 34.345236-128.506646l0-85.329778q0-17.663264 12.500812-30.164076t30.164076-12.500812zM512 0q70.653056 0 120.656306 50.00325t50.00325 120.656306l0 341.319112q0 70.653056-50.00325 120.656306t-120.656306 50.00325-120.656306-50.00325-50.00325-120.656306l0-341.319112q0-70.653056 50.00325-120.656306t120.656306-50.00325zM512 85.329778q-35.326528 0-60.328153 25.001625t-25.001625 60.328153l0 341.319112q0 35.326528 25.001625 60.328153t60.328153 25.001625 60.328153-25.001625 25.001625-60.328153l0-341.319112q0-35.326528-25.001625-60.328153t-60.328153-25.001625z" fill="#444444" p-id="14772"></path></svg>