<?xml version="1.0" standalone="no"?><!DOCTYPE svg PUBLIC "-//W3C//DTD SVG 1.1//EN" "http://www.w3.org/Graphics/SVG/1.1/DTD/svg11.dtd"><svg t="1748495848094" class="icon" viewBox="0 0 1024 1024" version="1.1" xmlns="http://www.w3.org/2000/svg" p-id="4566" width="64" height="64" xmlns:xlink="http://www.w3.org/1999/xlink"><path d="M795.733333 558.933333c8.533333-14.933333 4.266667-34.133333-10.666666-44.8-40.533333-23.466667-85.333333-42.666667-132.266667-53.333333 51.2-40.533333 83.2-104.533333 83.2-172.8C736 164.266667 635.733333 64 512 64S288 164.266667 288 288c0 76.8 38.4 145.066667 98.133333 185.6C198.4 537.6 64 716.8 64 928c0 17.066667 14.933333 32 32 32S128 945.066667 128 928C128 697.6 313.6 512 541.866667 512c74.666667 0 147.2 19.2 211.2 57.6 12.8 10.666667 34.133333 4.266667 42.666666-10.666667zM352 288C352 200.533333 424.533333 128 512 128s160 72.533333 160 160S599.466667 448 512 448s-160-72.533333-160-160z" fill="#d81e06" p-id="4567"></path><path d="M768 785.066667m-46.933333 0a46.933333 46.933333 0 1 0 93.866666 0 46.933333 46.933333 0 1 0-93.866666 0Z" fill="#d81e06" p-id="4568"></path><path d="M955.733333 768L874.666667 622.933333c-6.4-10.666667-17.066667-17.066667-27.733334-17.066666h-160c-10.666667 0-21.333333 6.4-27.733333 17.066666L580.266667 768c-6.4 10.666667-6.4 21.333333 0 32l81.066666 145.066667c6.4 10.666667 17.066667 17.066667 27.733334 17.066666h160c10.666667 0 21.333333-6.4 27.733333-17.066666l81.066667-145.066667c4.266667-10.666667 4.266667-21.333333-2.133334-32z m-125.866666 128h-121.6l-61.866667-110.933333 61.866667-110.933334h121.6l61.866666 110.933334-61.866666 110.933333z" fill="#d81e06" p-id="4569"></path></svg>