<?xml version="1.0" standalone="no"?><!DOCTYPE svg PUBLIC "-//W3C//DTD SVG 1.1//EN" "http://www.w3.org/Graphics/SVG/1.1/DTD/svg11.dtd"><svg t="1748935375921" class="icon" viewBox="0 0 1024 1024" version="1.1" xmlns="http://www.w3.org/2000/svg" p-id="24337" xmlns:xlink="http://www.w3.org/1999/xlink" width="32" height="32"><path d="M768 384c0-47.061333-38.272-85.333333-85.333333-85.333333h-61.184l-103.168-171.904A85.674667 85.674667 0 0 0 445.184 85.333333H213.333333v85.333334h231.850667l76.8 128H170.666667c-47.061333 0-85.333333 38.272-85.333334 85.333333v384c0 47.061333 38.272 85.333333 85.333334 85.333333h512c47.061333 0 85.333333-38.272 85.333333-85.333333v-128l170.666667 85.333333v-298.666666l-170.666667 85.333333V384z m-85.248 384H170.666667V384h512l0.042666 170.666667H682.666667v42.666666l0.042666 0.042667 0.042667 170.624z" p-id="24338"></path><path d="M256 597.333333h256v85.333334H256z" p-id="24339"></path></svg>