<?xml version="1.0" standalone="no"?><!DOCTYPE svg PUBLIC "-//W3C//DTD SVG 1.1//EN" "http://www.w3.org/Graphics/SVG/1.1/DTD/svg11.dtd"><svg t="1748935176972" class="icon" viewBox="0 0 1024 1024" version="1.1" xmlns="http://www.w3.org/2000/svg" p-id="18716" xmlns:xlink="http://www.w3.org/1999/xlink" width="32" height="32"><path d="M226.261333 285.141333l193.194667-145.664c26.453333-19.925333 63.104-13.226667 81.792 14.976 6.997333 10.581333 10.752 23.168 10.752 36.138667v642.816c0 34.56-26.282667 62.592-58.666667 62.592-12.117333 0-23.978667-4.010667-33.877333-11.477333l-193.194667-145.664a28.074667 28.074667 0 0 0-16.896-5.717334h-137.386666c-16.213333 0-29.312-13.994667-29.312-31.274666v-379.733334c0-17.28 13.141333-31.274667 29.354666-31.274666h137.344c6.058667 0 11.946667-2.005333 16.896-5.717334zM753.621333 193.28c-16.256-15.786667-15.36-39.68 2.048-54.570667a40.106667 40.106667 0 0 1 1.792-1.450666c17.664-13.44 44.714667-12.074667 60.458667 2.986666 9.216 8.874667 16.64 16.298667 22.186667 22.4 191.786667 208.256 188.245333 504.917333-10.624 709.930667a435.029333 435.029333 0 0 1-12.970667 12.672 48.384 48.384 0 0 1-60.842667 0c-17.365333-14.805333-18.218667-38.613333-2.005333-54.314667 3.413333-3.370667 6.4-6.314667 8.96-8.96 169.429333-176.597333 172.544-430.677333 9.216-610.133333-4.650667-5.12-10.709333-11.306667-18.218667-18.56z" fill="#666666" p-id="18717"></path><path d="M619.818667 283.861333a41.728 41.728 0 0 1 2.901333-2.261333c17.92-12.714667 44.544-10.581333 59.434667 4.693333 2.688 2.773333 4.992 5.290667 6.997333 7.509334 114.986667 128.981333 114.602667 308.949333-1.109333 437.589333a228.693333 228.693333 0 0 1-5.802667 6.186667c-0.853333 0.853333-1.706667 1.706667-2.645333 2.517333-16.512 14.08-43.264 14.08-59.733334 0-17.237333-14.72-18.730667-38.101333-3.498666-54.314667a177.92 177.92 0 0 0 5.034666-5.546666c85.888-99.84 85.930667-236.672 0-336.469334a176.469333 176.469333 0 0 0-5.034666-5.632c-15.232-16.213333-13.738667-39.594667 3.456-54.272z" fill="#666666" p-id="18718"></path></svg>