<?xml version="1.0" standalone="no"?><!DOCTYPE svg PUBLIC "-//W3C//DTD SVG 1.1//EN" "http://www.w3.org/Graphics/SVG/1.1/DTD/svg11.dtd"><svg t="1748936682487" class="icon" viewBox="0 0 1024 1024" version="1.1" xmlns="http://www.w3.org/2000/svg" p-id="18940" xmlns:xlink="http://www.w3.org/1999/xlink" width="32" height="32"><path d="M97.28 128 42.666667 182.186667 105.386667 244.906667C87.04 256 68.693333 268.373333 51.2 281.6L128 384C150.613333 366.933333 174.08 352 198.826667 338.346667L293.973333 433.493333C262.4 448 232.106667 465.493333 204.8 486.4L281.6 588.8C314.88 564.053333 352.426667 544.853333 392.533333 532.053333L501.333333 640C448 642.986667 398.506667 661.333333 358.4 691.2L512 896 616.96 756.48 756.906667 896 810.666667 841.386667M512 128C420.266667 128 332.8 144.213333 251.733333 173.653333L353.706667 276.053333C405.333333 262.826667 457.386667 256 512 256 656.213333 256 789.333333 303.36 896 384L972.8 281.6C844.373333 185.173333 685.226667 128 512 128M512 384C495.786667 384 480 384 464.213333 386.133333L600.32 522.666667C652.373333 534.613333 701.013333 557.653333 742.4 588.8L819.2 486.4C733.866667 421.973333 627.2 384 512 384Z" p-id="18941"></path></svg>